<?xml version="1.0" encoding="utf-8"?>
<!-- Generator: Adobe Illustrator 24.3.0, SVG Export Plug-In . SVG Version: 6.00 Build 0)  -->
<svg version="1.1" id="Layer_1" xmlns="http://www.w3.org/2000/svg" xmlns:xlink="http://www.w3.org/1999/xlink" x="0px" y="0px"
	 viewBox="0 0 512 512" style="enable-background:new 0 0 512 512;" xml:space="preserve">
<style type="text/css">
	.st0{fill:#BD00FF;}
	.st1{fill:#008FFF;}
</style>
<polygon class="st0" points="298.11,203.49 327.72,215 298.11,226.09 298.11,241.8 348.77,221.31 348.77,208.82 298.11,188.33 "/>
<path d="M27.09,261.87c-14.18,0-24.56,6.32-25.4,19.51H17.4v-0.28c0.28-4.35,4.35-7.58,8.84-7.16c6.04,0,8.84,3.51,8.84,9.4v2.81
	h-7.16C12.49,286.16,0,290.93,0,305.66v0.56c0,11.93,8.84,17.26,19.51,17.26l0,0c6.6,0.28,12.63-2.81,16.28-7.86v6.88h16v-39.58
	C51.37,267.77,40.98,261.87,27.09,261.87z M23.72,311.84c-5.61,0-8.14-2.81-8.14-6.88v-0.56c0-5.33,4.07-7.58,12.21-7.58h6.6v5.61
	l0,0C34.67,308.61,29.33,311.84,23.72,311.84z"/>
<path d="M89.26,311.14c-7.86,0-11.93-5.33-11.93-17.26v-1.82c0-11.65,4.77-17.26,11.93-17.26c5.61,0,8.84,3.79,9.68,9.4h15.72
	c-1.26-15.44-12.63-22.32-25.82-22.32c-15.72,0-28.21,10.67-28.21,30.74v0.56c0,20.07,11.93,30.18,28.21,30.18l0,0
	c16,0,25.12-9.68,26.39-22.88h-15.02C99.09,307.07,95.02,311.14,89.26,311.14z"/>
<path d="M150.6,311.14c-7.86,0-11.93-5.33-11.93-17.26v-1.82c0-11.65,4.77-17.26,11.93-17.26c5.61,0,8.84,3.79,9.68,9.4H176
	c-1.26-15.44-12.63-22.32-25.82-22.32c-15.72,0-28.21,10.67-28.21,30.74v0.56c0,20.07,11.93,30.18,28.21,30.18l0,0
	c16,0,25.12-9.68,26.11-22.88h-14.74C160.56,307.07,156.21,311.14,150.6,311.14z"/>
<path d="M212.49,311.42c-7.16,0-11.65-4.07-12.21-14.74h38.32v-6.88c0-19.51-12.21-27.93-26.95-27.93c-16,0-28.21,10.95-28.21,30.74
	v1.26c0,19.79,11.65,29.89,28.63,29.89l0,0c15.44,0,24.84-8.42,26.39-19.79h-15.44C222.18,308.61,217.4,312.12,212.49,311.42z
	 M211.51,273.1c6.6,0,10.67,3.79,10.95,12.63h-22.04l0,0l0,0l0,0C201.68,276.33,206.46,273.52,211.51,273.1z"/>
<polygon class="st1" points="200.56,285.73 200.56,285.73 200.14,285.73 "/>
<path d="M283.09,261.87c-7.58-0.28-14.46,3.51-17.96,10.11v-8.84h-16.28v59.09h16.28v-36.07c0-0.56,0-0.98,0-1.54
	c0.28-5.33,5.05-9.68,10.39-9.4c6.04,0,8.84,3.09,8.84,10.11v36.91h16.7v-39.58C301.05,268.19,293.75,261.87,283.09,261.87z"/>
<path d="M331.79,303.28v-27.93h11.37v-12.21h-11.37v-17.96l-16.28,6.88V263h-7.16v12.21h6.88v29.89c0,11.93,6.04,17.96,18.81,17.96
	c3.09,0,6.32-0.28,9.4-1.26v-12.91c-1.82,0.56-3.79,0.98-5.61,0.98C334.04,309.87,331.79,307.77,331.79,303.28z"/>
<path d="M388.63,299.91c0,0.56,0,0.98,0,1.54c-0.28,5.33-5.05,9.68-10.39,9.4c-6.04,0-8.42-3.09-8.42-10.11V263h-16.7v39.86
	c0,13.75,7.86,20.35,18.53,20.35c7.16,0.28,13.75-3.51,17.26-10.11v8.84h16.7v-59.09h-16.7L388.63,299.91L388.63,299.91z"/>
<path d="M433.82,273.8v-10.95h-16.28v59.09h16.28v-30.6c0-9.68,6.6-13.19,17.96-13.19v-16.28
	C443.65,261.87,436.35,266.51,433.82,273.8z"/>
<path d="M512,289.52c0-19.51-12.21-27.65-26.95-27.65c-16,0-28.21,10.95-28.21,30.74v1.26c0,19.79,11.65,29.89,28.63,29.89l0,0
	c15.44,0,24.56-8.42,26.39-19.79h-15.44c-1.26,5.05-6.04,8.14-10.95,7.86c-7.16,0-11.65-4.07-12.21-14.74h38.32v-7.58H512
	L512,289.52z M473.68,285.73L473.68,285.73L473.68,285.73c1.26-9.68,6.04-12.63,11.37-12.63c6.6,0,10.67,3.79,10.95,12.63H473.68
	L473.68,285.73z"/>
<path class="st1" d="M473.68,285.73L473.68,285.73L473.68,285.73L473.68,285.73z"/>
</svg>
