<?xml version="1.0" encoding="utf-8"?>
<!-- Generator: Adobe Illustrator 24.3.0, SVG Export Plug-In . SVG Version: 6.00 Build 0)  -->
<svg version="1.1" id="Layer_1" xmlns="http://www.w3.org/2000/svg" xmlns:xlink="http://www.w3.org/1999/xlink" x="0px" y="0px"
	 viewBox="0 0 512 512" style="enable-background:new 0 0 512 512;" xml:space="preserve">
<style type="text/css">
	.st0{fill:#110E0E;}
	.st1{fill:#007CC2;}
	.st2{fill:#59B431;}
	.st3{fill:#65AFE0;}
</style>
<g id="XMLID_1_">
	<g id="_x23_110e0eff">
		<path id="path6" class="st0" d="M244.48,0.45c4.69-0.43,9.53-0.43,14.22-0.43c3.98-0.28,7.96,0.14,11.95,0.43
			c28.73,2.28,56.89,12.37,80.5,29.01C374.9,45.96,394.1,69,406.19,95.17c13.94,29.87,18.35,64.14,12.66,96.71
			c-3.7,22.04-12.09,43.24-24.46,61.87c-11.52,17.49-26.45,32.85-43.66,44.94c-21.05,14.79-45.8,24.32-71.25,27.73
			c-32.71,4.55-66.7-1-96.14-15.93c-28.16-14.08-52.05-36.55-67.84-63.72c-16.07-27.16-23.75-59.02-22.33-90.46
			c0.71-15.79,3.7-31.43,8.96-46.22c10.38-29.87,29.73-56.61,54.76-75.95C182.04,14.67,212.91,2.87,244.48,0.45 M236.66,2.73
			c-1.56,0.71-3.27,0.57-4.84,1.14c-2.28,0.85-4.84,1.14-7.11,1.85c-2.13,0.43-3.98,1.85-6.26,1.99c0.14,0.14,0.43,0.14,0.57,0.28
			c-2.42,0-4.27,1.99-6.54,2.28c0.14,0,0.57,0.14,0.71,0.28c-0.85,0.14-1.56,0.43-2.42,0.57c0.14,0.14,0.43,0.14,0.57,0.28
			c-2.13,0.57-3.98,1.99-5.83,2.99c-2.99,1.99-5.83,3.98-8.68,6.26c0,0.28-0.14,0.71-0.14,1c-0.28,0-0.71,0-1,0
			c-1.71,1.99-3.98,3.7-5.69,5.83c0,0.14-0.14,0.57-0.14,0.85c-1.71,0.85-2.56,2.7-3.56,4.27c-2.13,2.42-3.56,5.4-5.12,8.25
			c-1.28,2.28-1.99,4.69-2.99,7.11c-1,2.56-1.85,5.26-2.13,8.11c-0.14-0.57-0.14-1.14-0.28-1.71c0,1.28,0,2.56-0.28,3.7
			c-0.71,1.99-0.57,4.12-0.85,6.26c2.28,0.71,4.69,0,6.97,0.57c-2.28-0.14-4.55,0-6.97-0.14v-0.14c-8.96-0.14-18.06,0-27.02,1.56
			c-9.81,1.71-20.05,4.69-27.59,11.66c-5.4,4.84-8.53,11.95-8.68,19.2c-0.28,10.52,3.7,20.48,8.53,29.58
			c5.26,9.53,11.66,18.49,18.63,26.88c10.81,12.94,22.61,25.03,35.56,35.84c0,22.33,0,44.52,0,66.85c0,0.85,0.14,1.71,0.28,2.7
			c0.14,4.55,0.14,9.1,1.56,13.51c0.71,3.13,1.56,6.26,2.42,9.39c0.14-0.28,0.14-0.43,0.28-0.71c0.43,2.28,1.14,4.41,2.42,6.26
			c0.28,0.57,0.57,1.28,0.85,1.85c0.71,2.13,2.13,3.98,3.41,5.97c4.55,6.68,10.52,12.23,16.92,17.07c1.85,1,3.56,2.13,5.12,3.27
			c3.13,1.56,6.4,3.13,9.67,4.41c1.28,0.71,2.84,1.28,4.41,1.42c-0.14,0.14-0.43,0.14-0.57,0.28c3.13,0.43,6.12,1.85,9.24,2.56
			c4.55,1.14,9.39,1.71,14.08,2.56c8.11,0.57,16.21,0.71,24.32,0.14c2.28-0.43,4.55-0.71,6.83-0.85c6.26-1,12.37-2.84,18.49-4.55
			c3.13-1.42,6.54-2.56,9.53-4.41c2.56-1,4.98-2.56,7.4-3.98c1.14-0.85,2.13-1.71,3.41-2.56c1.85-1.28,3.41-2.99,5.12-4.41
			c4.12-3.27,7.11-7.54,10.24-11.66c4.69-6.97,7.82-14.93,9.53-23.18c0.43-2.42,1-4.69,1-7.25c0.28-1.99,0.14-3.98,0.43-5.97
			c5.83,0.43,11.52,0,17.35-0.28c7.82-0.71,15.5-1.71,23.04-4.12c5.97-1.85,11.66-4.55,16.36-8.68c3.84-3.41,6.4-7.96,7.4-12.94
			c1.28-7.25-0.43-14.65-3.27-21.33c-4.27-10.52-10.81-19.77-17.78-28.73c-1.42-0.28-2.99,0-4.41-0.14c-24.6,0-49.07,0-73.67,0.14
			c3.84,5.55,8.11,11.38,8.96,18.2v0.43c-1.99-0.43-3.98-0.14-5.97,0c-6.26,0-12.52,0-18.77,0c-1.85-0.14-3.7-0.28-5.55,0
			c-4.69,0-9.39,0-14.22,0c-9.1-4.84-17.35-10.95-25.32-17.49c0.14-13.23,0-26.45,0-39.68c0-6.68,0.14-13.37-0.14-20.05l0.14,0.14
			c7.25,4.27,13.94,9.53,19.77,15.64c0.57,0.85,1.71,0.57,2.56,0.57c25.46-0.14,50.92,0,76.23-0.28
			c-9.81-9.67-20.2-18.63-31.43-26.45c1.71-0.71,3.56-0.28,5.4-0.43c7.68,0,15.5,0,23.18,0c0-14.36,0.14-28.87,0-43.24
			c-0.71-4.27-0.43-8.68-1.85-12.8c-0.14-3.41-1.99-6.4-2.42-9.67c0,0.14-0.14,0.57-0.28,0.71c-0.71-2.99-2.13-5.69-3.56-8.39
			c-0.85-1.99-2.42-3.7-3.13-5.69c-1.42-1.56-2.84-3.41-4.12-4.98c-4.55-5.55-10.24-9.96-16.21-13.94c-2.42-1.14-4.84-2.28-7.11-3.7
			c-3.98-1.99-8.25-3.56-12.52-4.84c-2.56-0.85-5.26-1.28-7.82-2.13c-4.27-0.43-8.39-1.85-12.66-1.85c-7.82-0.57-15.64-0.57-23.47,0
			C242.63,2.16,239.65,2.44,236.66,2.73z"/>
		<path id="path8" class="st0" d="M252.59,54.35c2.84-1,5.97-1.28,8.82-0.43c5.69,2.28,8.25,8.68,8.68,14.36
			c0.14,6.54,0,13.08,0.14,19.48c-2.42-0.71-4.55-1.85-6.83-2.84c-6.12-2.56-12.23-5.12-18.49-7.11c0.14-3.84-0.14-7.82,0.28-11.66
			c0.85-2.42,1.14-5.12,2.56-7.4c0.85-1.42,1.85-2.7,3.27-3.41C251.59,55.07,252.02,54.64,252.59,54.35z"/>
		<path id="path10" class="st0" d="M244.91,236.83c0-0.85,0-1.71,0.43-2.42c8.11,3.84,16.36,7.11,24.75,9.96
			c-0.14,3.13,0,6.26,0,9.39c0,3.84,0.28,7.68-1.14,11.38c-1,3.41-3.13,6.68-6.4,8.11c-3.27,1.99-7.4,1.42-10.95,0.28
			c0.28-0.14,0.43-0.14,0.71-0.28c-0.71-0.14-1.42-0.43-1.99-0.57c-1.28-1.42-2.56-2.84-3.27-4.55c-1.42-3.13-1.85-6.54-1.99-9.96
			C244.91,251.05,245.05,243.94,244.91,236.83z"/>
		<path id="path12" class="st0" d="M398.23,256.6c3.41,0,6.97,0,10.38,0c0,0.43,0,1,0,1.42c-1.42,0-2.84,0-4.27,0
			c0,3.7,0,7.4,0,11.24c-0.57,0-1.14,0-1.71,0c0-3.7,0-7.54,0-11.24c-1.42,0-2.84,0-4.27,0
			C398.23,257.45,398.23,257.02,398.23,256.6z"/>
		<path id="path14" class="st0" d="M410.03,256.6c0.85,0,1.71,0,2.56,0c1.14,3.56,2.28,7.11,3.7,10.67
			c1.28-3.56,2.42-7.11,3.56-10.67c0.85,0,1.71,0,2.42,0c0,4.27,0,8.39,0,12.66c-0.57,0-1.14,0-1.71,0c0-3.41,0.14-6.68,0-10.1
			c-1.42,3.27-2.28,6.68-3.56,10.1c-0.57,0-1.14,0-1.71,0c-1.14-3.41-2.13-6.97-3.56-10.24c0,3.41,0,6.97,0,10.38
			c-0.57,0-1.14,0-1.71,0C410.17,264.99,410.17,260.72,410.03,256.6z"/>
		<path id="path16" class="st0" d="M24.03,391.57c6.4-3.98,14.22-4.55,21.62-4.27c6.68,0.28,13.8,2.28,18.06,7.68
			c4.69,5.83,5.12,13.8,4.84,21.05c-4.27,0.14-8.53,0-12.8,0c-0.14-4.12,0-8.53-1.85-12.37c-1.56-3.27-5.12-4.69-8.53-5.4
			c-5.55-1.14-11.66,0.14-15.93,4.12c-1.99,1.85-2.99,4.41-3.7,6.97c-1,3.98-1.14,8.11-1.28,12.09c-0.14,9.96,0,19.91-0.14,29.73
			c0.14,6.4,0.28,13.08,2.99,19.06c1.56,3.56,4.55,6.4,8.39,7.25c3.98,0.85,8.39,1,12.09-0.71c2.99-1.28,5.4-3.84,6.83-6.83
			c1.85-3.84,2.28-8.11,2.42-12.23c4.27,0,8.53,0,12.8,0c0,6.54-0.71,13.37-3.98,19.2c-2.56,4.84-7.25,8.39-12.37,9.96
			c-4.55,1.42-9.24,1.56-13.94,1.42c-5.4-0.14-11.09-1-15.79-4.12c-4.98-3.13-7.96-8.68-9.67-14.08c-1.99-6.68-2.7-13.8-2.42-20.91
			c0-8.82,0-17.64,0-26.31c-0.28-5.4,0.28-10.95,1.71-16.21C15.07,400.67,18.49,394.84,24.03,391.57z"/>
		<path id="path18" class="st0" d="M271.36,401.1c0-3.98,0-7.96,0-11.8c4.12,0,8.25,0,12.37,0c0,3.98,0,7.82,0,11.8
			C279.61,401.1,275.49,401.1,271.36,401.1z"/>
		<path id="path20" class="st0" d="M474.32,405.37c3.7-1.71,7.4-3.27,11.09-4.98c0,5.97,0,11.95,0,18.06c4.98,0,9.81,0,14.79,0
			c0,2.84,0,5.55,0,8.39c-4.98,0-9.81,0-14.79,0c0,14.22,0,28.3,0,42.53c0,2.56,0.57,5.69,2.99,7.25c3.56,2.28,7.96,1.56,11.95,1.14
			c0,2.84,0.14,5.69,0,8.53c-5.26,0.57-10.52,1.56-15.79,0.57c-3.41-0.57-6.83-2.13-8.53-5.12c-1.71-2.7-1.71-5.97-1.56-8.96
			c0-15.36,0-30.58,0-45.94c-3.7,0-7.4,0-11.09,0c0-2.84-0.14-5.55,0-8.39c3.7,0,7.4,0,11.09,0
			C474.32,414.04,474.17,409.77,474.32,405.37z"/>
		<path id="path22" class="st0" d="M234.53,417.31c5.26-0.57,11.09-0.43,15.5,2.7c3.84,2.56,5.55,7.25,6.26,11.66
			c0.71,4.84,0.43,9.81,0.57,14.65c0,13.37,0,26.74,0,39.97c-3.7,0.14-7.4,0-11.09,0c0-12.52,0-25.03,0-37.55
			c0-3.98,0.14-7.96-0.14-11.95c-0.28-3.41-1.42-6.97-4.41-8.96c-3.27-2.13-7.4-2.28-11.09-1.56c-3.41,0.71-6.4,3.13-7.82,6.26
			c-2.28,4.84-2.28,10.38-2.42,15.64c0,12.66,0,25.32,0,37.97c-3.7,0-7.4,0-11.09,0c0-12.52,0-25.03,0-37.55
			c0-10.1,0.28-20.34-0.71-30.44c3.84,0,7.82,0,11.66,0c0.14,2.99,0,5.97,0.14,8.96c1.28-1,1.85-2.7,2.99-3.98
			C225.85,419.87,230.12,417.74,234.53,417.31z"/>
		<path id="path24" class="st0" d="M427.24,420.16c3.98-2.84,9.1-3.27,13.8-3.13c4.27,0.14,8.82,1.28,11.8,4.55
			c3.13,3.27,4.12,7.96,4.55,12.23c0.43,5.12,0.14,10.24,0.28,15.36c0,12.37,0,24.75,0,37.12c-3.7,0-7.4,0-11.09,0
			c0-15.64,0-31.29,0-46.93c0-3.27-0.43-6.83-2.42-9.53c-1.71-2.28-4.55-3.41-7.4-3.7c-3.7-0.43-7.68,0.14-10.67,2.7
			c-2.84,2.42-4.12,6.12-4.69,9.67c-0.71,5.12-0.43,10.24-0.57,15.36c0,10.81,0,21.62,0,32.43c-3.7,0-7.4,0-11.09,0
			c0-11.66,0-23.32,0-34.99c0-10.95,0.28-22.04-0.57-33c3.84,0,7.82,0,11.66,0c0.14,2.84-0.14,5.83,0.14,8.68h0.28
			C422.97,424.57,424.68,422.01,427.24,420.16z"/>
		<path id="path26" class="st0" d="M99.41,417.6c6.12-1,12.52-0.85,18.35,1.14c4.84,1.56,8.68,5.4,10.81,9.96
			c2.7,5.83,3.27,12.52,3.56,18.77c0.14,8.25,0.14,16.78-2.13,24.75c-1.42,4.98-4.41,9.81-8.96,12.37
			c-5.12,2.99-11.38,3.13-17.07,2.99c-5.26-0.14-10.95-1.42-14.93-5.12c-4.55-4.12-6.4-10.38-7.4-16.21
			c-1.14-7.25-1-14.51-0.71-21.76c0.43-6.83,1.42-13.94,5.69-19.63C89.46,420.87,94.29,418.45,99.41,417.6 M101.97,426.56
			c-2.99,0.71-5.55,2.84-6.97,5.55c-2.42,4.69-2.7,10.24-2.84,15.36c0,5.97,0,11.8,1,17.64c0.71,3.84,1.71,8.11,4.84,10.81
			s7.68,2.84,11.52,2.42c3.27-0.43,6.4-2.56,7.82-5.55c2.56-4.98,2.84-10.52,3.13-15.93c0.14-6.97,0.57-14.08-1.14-20.91
			c-0.85-3.41-2.84-6.97-6.26-8.68C109.65,425.85,105.53,425.85,101.97,426.56z"/>
		<path id="path28" class="st0" d="M154.88,420.3c4.55-3.27,10.52-3.84,15.93-2.56c3.27,0.85,6.4,2.84,8.53,5.55
			c0.85,1.14,1.56,2.42,2.42,3.56c0-2.84,0-5.69,0-8.53c3.7,0,7.4,0,11.09,0c0,24.75,0,49.49,0,74.38c0,4.12-0.57,8.53-3.13,12.09
			c-2.28,3.13-5.83,4.98-9.53,5.97c-3.84,1-7.82,1.28-11.8,1.14c-5.55,0.28-11.24-1-15.64-4.55c-3.41-2.7-5.4-6.97-5.55-11.38
			c0-0.71-0.28-1.56,0.28-2.13c3.98-0.14,8.11,0,12.23,0c0.14,2.56,0.85,5.12,2.7,6.97c2.56,2.56,6.4,3.13,9.96,2.7
			c3.27-0.43,6.54-2.13,8.11-5.26c1.85-3.13,1.42-6.83,1.42-10.38c0-3.41,0.14-6.97-0.14-10.38c-1.99,3.13-4.55,5.83-7.96,7.25
			c-4.98,2.13-10.81,1.85-15.79,0c-4.55-1.71-8.11-5.69-9.96-10.24c-2.56-6.12-3.27-12.94-3.41-19.48c-0.28-7.54,0-15.22,2.13-22.47
			C148.05,427.84,150.61,423.14,154.88,420.3 M165.83,426.56c-3.56,0.71-6.26,3.56-7.54,6.83c-2.13,4.98-2.28,10.52-2.42,15.93
			c0,6.4,0.14,13.08,1.99,19.2c1,3.41,3.27,6.97,6.83,7.96c4.41,1.28,9.81,0.71,12.8-2.99c2.99-3.56,3.7-8.39,4.12-12.8
			c0.28-5.26,0.28-10.52,0.14-15.79c-0.28-5.12-0.71-10.67-3.98-14.93C175.08,426.56,170.1,425.7,165.83,426.56z"/>
		<path id="path30" class="st0" d="M351.72,423.29c2.7-3.27,6.97-4.98,11.09-5.69c4.55-0.71,9.1-0.85,13.65-0.14
			s9.1,2.56,11.95,6.26c2.99,3.7,3.84,8.68,3.84,13.23c0,11.24,0,22.47,0,33.71c0,5.26,0.57,10.52,1.28,15.79
			c-3.98,0-8.11,0-12.09,0c0-3.27,0.14-6.68-0.14-9.96c-1.42,2.84-2.99,5.69-5.55,7.82c-3.56,2.99-8.25,3.7-12.66,3.56
			c-4.41-0.14-9.1-1.28-12.23-4.55c-3.41-3.41-4.69-8.25-5.12-12.94c-0.43-4.27-0.43-8.82,1.14-12.94c1.14-3.27,3.56-6.12,6.4-8.11
			c3.84-2.56,8.53-3.84,13.23-4.41c4.84-0.71,9.81-0.57,14.79-0.57c0-4.55,0.28-9.24-1.56-13.51c-1.28-2.84-4.12-4.69-7.11-4.98
			c-3.7-0.57-7.96-0.14-10.81,2.7c-2.28,2.42-2.84,5.97-2.7,9.1c-3.98,0-7.96,0-11.95,0C347.31,432.53,348.31,427.27,351.72,423.29
			 M364.8,454.15c-3.27,1-6.26,3.27-7.4,6.68c-1.28,3.84-1.14,8.11,0.28,11.8c1.14,2.99,3.84,5.26,6.97,5.83
			c3.27,0.57,6.97,0.14,9.81-1.99c2.7-1.85,4.27-4.98,5.26-7.96c1.56-5.12,1.71-10.52,1.42-15.93
			C375.75,452.73,370.07,452.44,364.8,454.15z"/>
		<path id="path32" class="st0" d="M272.07,418.45c3.7,0,7.4,0,10.95,0c0.14,22.61,0,45.37,0,67.98c-3.7,0-7.4,0-11.09,0
			C271.93,463.68,271.93,441.06,272.07,418.45z"/>
		<path id="path34" class="st0" d="M294.69,418.45c13.51,0,27.02,0,40.53,0c0,3.13,0,6.4,0,9.53c0,0.57-0.43,1.14-0.71,1.56
			c-9.81,15.93-19.63,31.86-29.3,47.79c10.24,0,20.62,0,31.01,0c0,2.99,0,5.97,0,9.1c-14.36,0-28.59,0-42.95,0c0-2.99,0-5.97,0-8.96
			c0-0.71,0-1.28,0.28-1.85c9.81-16.07,19.63-32,29.44-48.07c-9.39,0-18.77,0-28.16,0C294.54,424.42,294.54,421.44,294.69,418.45z"
			/>
	</g>
	<g id="_x23_007cc2ff">
		<path id="path37" class="st1" d="M236.66,2.73c2.99-0.28,5.97-0.57,8.82-1.14c7.82-0.57,15.64-0.57,23.47,0
			c4.27,0,8.39,1.42,12.66,1.85c2.56,1,5.26,1.42,7.82,2.13c4.27,1.28,8.53,2.84,12.52,4.84c2.28,1.28,4.69,2.56,7.11,3.7
			c5.83,3.98,11.52,8.53,16.21,13.94c1.42,1.71,2.7,3.41,4.12,4.98c0.71,1.99,2.28,3.7,3.13,5.69c1.42,2.7,2.99,5.4,3.56,8.39
			c0-0.14,0.14-0.57,0.28-0.71c0.43,3.27,2.13,6.26,2.42,9.67c1.56,4.12,1.28,8.53,1.85,12.8c0.14,14.36,0.14,28.87,0,43.24
			c-7.68,0.14-15.5,0-23.18,0c-1.85,0-3.7-0.28-5.4,0.43c-0.28-0.14-0.57-0.43-0.85-0.57c-7.25-5.26-14.93-10.1-22.61-14.51
			c-6.12-3.27-12.09-6.68-18.49-9.39c0-0.14,0-0.28,0-0.43c-0.14-6.54,0-13.08-0.14-19.48c-0.43-5.69-2.99-12.09-8.68-14.36
			c-2.84-0.85-5.97-0.57-8.82,0.43c-0.57,0.28-1,0.71-1.42,1.14c-1.56,0.71-2.56,1.99-3.27,3.41c-1.56,2.13-1.85,4.84-2.56,7.4
			c-0.71,3.84,0,7.68-0.43,11.66c-3.7-1-7.4-2.42-11.09-3.41c-14.65-4.27-29.58-7.25-44.66-8.82c-2.42-0.14-4.84-0.28-7.11-0.71
			c-2.28-0.43-4.69,0.14-6.97-0.57c0.28-2.13,0.14-4.27,0.85-6.26c0.43-1.14,0.43-2.42,0.28-3.7c0.14,0.57,0.14,1.14,0.28,1.71
			c0.28-2.84,1-5.55,2.13-8.11c1-2.42,1.71-4.84,2.99-7.11c1.56-2.84,2.84-5.83,5.12-8.25c1-1.56,1.85-3.41,3.56-4.27
			c0-0.14,0.14-0.57,0.14-0.85c1.71-2.13,3.84-3.7,5.69-5.83c0.28,0,0.71,0,1,0c0-0.28,0.14-0.71,0.14-1
			c2.84-2.28,5.69-4.41,8.68-6.26c1.99-1,3.7-2.42,5.83-2.99c-0.14-0.14-0.43-0.14-0.57-0.28c0.85-0.14,1.56-0.43,2.42-0.57
			c-0.14,0-0.57-0.14-0.71-0.28c2.42-0.28,4.12-2.28,6.54-2.28c-0.14-0.14-0.43-0.14-0.57-0.28c2.28-0.14,3.98-1.56,6.26-1.99
			c2.28-0.71,4.84-1.14,7.11-1.85C233.39,3.3,235.09,3.44,236.66,2.73z"/>
		<path id="path39" class="st1" d="M205.8,114.23c4.55-1.14,9.24-0.85,13.8-0.43c8.96,1.14,17.35,4.98,25.17,9.53
			c0.28,6.68,0,13.37,0.14,20.05c0,13.23,0,26.45,0,39.68c-12.37-10.52-23.47-22.61-33.42-35.27c-4.41-5.83-8.82-11.95-11.38-18.92
			c-1-3.13-1.85-6.54-0.57-9.67C200.68,116.36,203.24,114.8,205.8,114.23z"/>
		<path id="path41" class="st1" d="M174.79,190.04c1.99,0.71,3.41,2.28,5.12,3.7c19.91,16.21,41.67,29.87,65,40.53
			c0.14,0.14,0.43,0.14,0.57,0.28c-0.43,0.71-0.57,1.56-0.43,2.42c0,7.11,0,14.22,0,21.33c0.28,3.41,0.57,6.83,1.99,9.96
			c0.71,1.71,1.99,3.13,3.27,4.55c0.71,0.14,1.28,0.43,1.99,0.57c-0.28,0.14-0.43,0.14-0.71,0.28c3.56,1.14,7.68,1.85,10.95-0.28
			c3.27-1.42,5.4-4.69,6.4-8.11c1.42-3.56,1-7.54,1.14-11.38c0-3.13,0-6.26,0-9.39c3.7,1,7.4,2.42,11.24,3.41
			c19.06,5.69,38.97,9.24,58.88,9.81c0,1.99,0,3.98,0,5.97c0,2.42-0.57,4.84-1,7.25c-1.71,8.25-4.84,16.21-9.53,23.18
			c-3.13,4.12-6.12,8.53-10.24,11.66c-1.71,1.42-3.27,2.99-5.12,4.41c-1.14,0.85-2.28,1.71-3.41,2.56c-2.42,1.28-4.69,2.99-7.4,3.98
			c-2.99,1.85-6.4,2.99-9.53,4.41c-6.12,1.71-12.23,3.56-18.49,4.55c-2.28,0.14-4.55,0.43-6.83,0.85
			c-8.11,0.57-16.21,0.57-24.32-0.14c-4.69-0.85-9.39-1.28-14.08-2.56c-3.13-0.57-5.97-2.13-9.24-2.56
			c0.14-0.14,0.43-0.14,0.57-0.28c-1.56-0.14-2.99-0.71-4.41-1.42c-3.27-1.28-6.54-2.84-9.67-4.41c-1.56-1.28-3.27-2.42-5.12-3.27
			c-6.4-4.84-12.37-10.38-16.92-17.07c-1.14-1.99-2.56-3.84-3.41-5.97c-0.28-0.57-0.57-1.14-0.85-1.85
			c-1.28-1.85-2.13-3.98-2.42-6.26c-0.14,0.28-0.14,0.43-0.28,0.71c-0.85-3.13-1.85-6.26-2.42-9.39c-1.28-4.41-1.42-8.96-1.56-13.51
			C174.79,235.83,174.51,212.94,174.79,190.04z"/>
		<path id="path43" class="st1" d="M270.22,200.42c4.69,0,9.39,0,14.22,0c1.85-0.14,3.7-0.14,5.55,0c6.26,0,12.52-0.14,18.77,0
			c1.99-0.14,3.98-0.43,5.97,0c0.14,2.13-0.71,4.41-2.56,5.83c-2.7,2.13-6.4,2.7-9.81,2.84c-11.24,0.43-22.19-3.41-31.86-8.53
			L270.22,200.42z"/>
	</g>
	<g id="_x23_59b431ff">
		<path id="path46" class="st2" d="M147.91,66.02c8.96-1.56,17.92-1.71,27.02-1.56v0.14c0,2.42-0.71,4.69-0.57,7.11
			c0,39.11,0,78.37,0,117.48c-12.94-10.81-24.75-22.9-35.56-35.84c-6.97-8.39-13.37-17.35-18.63-26.88
			c-4.84-9.1-8.82-19.2-8.53-29.58c0.14-7.25,3.27-14.36,8.68-19.2C127.86,70.71,138.1,67.72,147.91,66.02z"/>
		<path id="path48" class="st2" d="M244.91,123.19c0.14-15.08,0-30.15,0.14-45.37c6.26,1.99,12.37,4.55,18.49,7.11
			c2.28,1,4.41,2.13,6.83,2.84c0,0.14,0,0.28,0,0.43c0.14,7.96-0.14,16.07,0.14,24.04c12.37,0,24.75,0,36.98,0
			c1.28,0,2.7,0,3.98-0.14c0.28,0.14,0.57,0.43,0.85,0.57c11.24,7.96,21.62,16.92,31.43,26.45c-25.46,0.28-50.92,0.14-76.23,0.28
			c-0.85,0-1.99,0.14-2.56-0.57c-5.83-5.97-12.52-11.24-19.77-15.64H244.91z"/>
		<path id="path50" class="st2" d="M305.64,181.79c24.6,0,49.07,0,73.67-0.14c1.42,0,2.99-0.14,4.41,0.14
			c6.97,8.82,13.37,18.2,17.78,28.73c2.7,6.68,4.41,14.08,3.27,21.33c-0.85,4.98-3.56,9.53-7.4,12.94
			c-4.55,4.27-10.38,6.83-16.36,8.68c-7.4,2.42-15.22,3.41-23.04,4.12c-5.83,0.28-11.52,0.71-17.35,0.28
			c0.28-7.96,0-15.93,0.14-23.89c0-11.24,0-22.61,0-33.85c-8.68,0-17.49,0-26.17,0C313.74,193.17,309.48,187.33,305.64,181.79z"/>
		<path id="path52" class="st2" d="M244.91,182.93c7.96,6.54,16.21,12.66,25.32,17.49l0.14,0.14c-0.28,14.65,0,29.3-0.14,43.95
			c-8.39-2.99-16.78-6.12-24.75-9.96c-0.14-0.14-0.43-0.14-0.57-0.28C245.05,217.06,244.77,199.99,244.91,182.93z"/>
	</g>
	<g id="_x23_65afe0ff">
		<path id="path55" class="st3" d="M174.93,64.59c2.28,0.14,4.55,0,6.97,0.14c2.42,0.43,4.84,0.57,7.11,0.71
			c15.08,1.42,30.15,4.55,44.66,8.82c3.7,1,7.4,2.42,11.09,3.41c0.43-3.84-0.28-7.82,0.43-11.66c-0.43,3.84-0.14,7.82-0.28,11.66
			c-0.14,15.08,0,30.29-0.14,45.37c-7.82-4.41-16.21-8.25-25.17-9.53c-4.55-0.43-9.24-0.71-13.8,0.43
			c-2.56,0.71-5.12,2.28-6.26,4.84c-1.42,3.13-0.43,6.68,0.57,9.67c2.56,6.97,6.97,12.94,11.38,18.92
			c10.1,12.8,21.05,24.75,33.42,35.27c-0.14,17.07,0.14,34.28-0.14,51.34c-23.32-10.67-45.09-24.32-65-40.53
			c-1.56-1.28-2.99-2.84-5.12-3.7c-0.14,22.9,0,45.8-0.14,68.55c-0.14-0.85-0.28-1.71-0.28-2.7c0-22.33,0-44.52,0-66.85
			c-0.14-39.11,0-78.37,0-117.48C174.22,69.29,174.93,67.01,174.93,64.59z"/>
		<path id="path57" class="st3" d="M270.22,88.2c6.4,2.7,12.37,6.12,18.49,9.39c7.82,4.55,15.36,9.24,22.61,14.51
			c-1.28,0.14-2.7,0.14-3.98,0.14c-12.37,0-24.75,0-36.98,0C270.08,104.28,270.22,96.31,270.22,88.2z"/>
		<path id="path59" class="st3" d="M314.6,199.99c8.68,0,17.49,0,26.17,0c0.14,11.24,0,22.61,0,33.85c0,7.96,0.14,15.93-0.14,23.89
			c-0.28,1.99-0.28,3.98-0.43,5.97c0.14-1.99,0.14-3.98,0-5.97c-19.91-0.57-39.82-4.12-58.88-9.81c-3.7-1.14-7.4-2.42-11.24-3.41
			c0.14-14.65-0.14-29.3,0.14-43.95c9.81,5.26,20.76,9.1,31.86,8.53c3.41-0.14,6.97-0.71,9.81-2.84c1.71-1.42,2.56-3.7,2.56-5.83
			L314.6,199.99z"/>
	</g>
</g>
</svg>
