<?xml version="1.0" encoding="utf-8"?>
<!-- Generator: Adobe Illustrator 26.5.0, SVG Export Plug-In . SVG Version: 6.00 Build 0)  -->
<svg version="1.1" id="Layer_1" xmlns="http://www.w3.org/2000/svg" xmlns:xlink="http://www.w3.org/1999/xlink" x="0px" y="0px"
	 viewBox="0 0 512 512" style="enable-background:new 0 0 512 512;" xml:space="preserve">
<style type="text/css">
	.st0{fill:#EA1B22;}
</style>
<g id="layer1" transform="translate(-702.6538,-712.5837)">
	<g id="g16337">
		<path id="path16197" class="st0" d="M915.83,978.26h32.65l-17.29-27.81l-31.68,50.22h-14.39l38.46-60.32
			c1.66-2.49,4.43-3.87,7.61-3.87c3.04,0,5.81,1.38,7.47,3.74l38.6,60.32h-14.39l-6.78-11.21h-33.06L915.83,978.26z M1065.38,989.47
			v-52.29h-12.17v57.41c0,1.52,0.55,3.04,1.8,4.29c1.11,1.11,2.77,1.8,4.43,1.8h55.75l7.19-11.21H1065.38z M863.26,980.06
			c11.9,0,21.44-9.55,21.44-21.44s-9.68-21.44-21.44-21.44h-53.54v63.5h12.17v-52.29h40.4c5.67,0,10.24,4.57,10.24,10.24
			c0,5.67-4.57,10.24-10.24,10.24h-34.45l36.52,31.82h17.71l-24.49-20.61L863.26,980.06L863.26,980.06z M734.47,1000.68
			c-17.57,0-31.82-14.25-31.82-31.82s14.25-31.82,31.82-31.82h36.94c17.57,0,31.82,14.25,31.82,31.82s-14.25,31.82-31.82,31.82
			H734.47z M770.58,989.47c11.34,0,20.61-9.13,20.61-20.47c0-11.34-9.27-20.61-20.61-20.61H735.3c-11.34,0-20.61,9.27-20.61,20.61
			c0,11.34,9.27,20.47,20.61,20.47H770.58z M1002.71,1000.68c-17.57,0-31.82-14.25-31.82-31.82s14.25-31.82,31.82-31.82h43.85
			l-7.19,11.21h-35.97c-11.34,0-20.61,9.27-20.61,20.61s9.27,20.47,20.61,20.47h44.13l-7.19,11.21h-37.63V1000.68z M1152.26,989.47
			c-9.41,0-17.29-6.23-19.78-14.94h52.29l7.19-11.21h-59.49c2.49-8.58,10.38-14.94,19.78-14.94h35.83l7.19-11.21h-43.85
			c-17.57,0-31.82,14.25-31.82,31.82c0,17.57,14.25,31.82,31.82,31.82h37.63l7.19-11.21h-43.99"/>
		<path id="path16199" class="st0" d="M1201.92,943.82c0-3.04,2.49-5.53,5.53-5.53c3.18,0,5.67,2.49,5.67,5.53
			c0,3.18-2.49,5.67-5.67,5.67C1204.27,949.49,1201.92,947,1201.92,943.82z M1207.46,951.01c4.01,0,7.19-3.18,7.19-7.19
			c0-4.01-3.18-7.19-7.19-7.19c-3.87,0-7.06,3.18-7.06,7.19C1200.4,947.83,1203.58,951.01,1207.46,951.01z M1206.76,939.67
			c1.11,0,1.52,0,2.08,0.28c1.38,0.41,1.52,1.66,1.52,2.21c0,0.14,0,0.42-0.14,0.69c0,0.28-0.28,0.97-0.97,1.38
			c-0.14,0-0.14,0.14-0.42,0.14l1.8,3.32h-1.8l-1.66-3.04h-1.11v3.04h-1.52v-8.02H1206.76z M1207.32,943.26c0.55,0,0.97,0,1.38-0.55
			c0.14-0.14,0.14-0.42,0.14-0.69c0-0.41-0.28-0.69-0.55-0.97c-0.42-0.14-0.69-0.14-1.52-0.14h-0.42v2.35H1207.32"/>
	</g>
</g>
</svg>
