<?xml version="1.0" encoding="utf-8"?>
<!-- Generator: Adobe Illustrator 27.0.0, SVG Export Plug-In . SVG Version: 6.00 Build 0)  -->
<svg version="1.1" id="Ñëîé_1" xmlns="http://www.w3.org/2000/svg" xmlns:xlink="http://www.w3.org/1999/xlink" x="0px" y="0px"
	 viewBox="0 0 512 512" style="enable-background:new 0 0 512 512;" xml:space="preserve">
<style type="text/css">
	.st0{fill:url(#path3060_00000121971295267091161410000009137306942027695508_);}
	.st1{fill:#1870C5;}
	.st2{fill:#FFFFFF;}
</style>
<g id="XMLID_1_">
	
		<linearGradient id="path3060_00000005233344423039179500000002447825866341611962_" gradientUnits="userSpaceOnUse" x1="-341.6649" y1="71.1714" x2="-341.1718" y2="71.1714" gradientTransform="matrix(0 513.7016 513.7016 0 -36304.8789 175643.0781)">
		<stop  offset="0" style="stop-color:#00B8F1"/>
		<stop  offset="0.2199" style="stop-color:#06A5E5"/>
		<stop  offset="0.2199" style="stop-color:#06A5E5"/>
		<stop  offset="0.7943" style="stop-color:#1870C5"/>
		<stop  offset="1" style="stop-color:#1D61BC"/>
	</linearGradient>
	<path id="path3060" style="fill:url(#path3060_00000005233344423039179500000002447825866341611962_);" d="M0,129.28v253.3h258.7
		L512,129.28l0,0H0L0,129.28z"/>
	<path id="path5384" class="st1" d="M327.68,356.69v18.92h2.84v-8.25h3.27l5.12,8.25h3.27l-5.55-8.25c2.7-0.28,4.98-1.99,4.98-5.4
		c0-3.7-2.28-5.4-6.83-5.4h-7.11V356.69z M330.52,359.25h3.98c1.99,0,4.12,0.28,4.12,2.7c0,2.99-2.13,3.27-4.69,3.27h-3.41V359.25z
		 M334.08,349.72c-9.1,0-16.78,6.97-16.78,16.36c0,9.53,7.68,16.64,16.78,16.64c8.96,0,16.36-7.11,16.36-16.64
		C350.58,356.69,343.04,349.72,334.08,349.72z M334.08,352.43c7.4,0,13.23,5.97,13.23,13.65c0,7.96-5.83,13.65-13.23,13.65
		c-7.54,0-13.51-5.83-13.51-13.65C320.57,358.4,326.68,352.43,334.08,352.43z"/>
	<path id="path3100" class="st2" d="M306.77,250.45h-11.09v-40.53h11.09c14.79,0,26.6,4.84,26.6,20.05
		C333.37,245.62,321.56,250.45,306.77,250.45 M187.31,279.47c-5.83,0-11.38-1.14-16.21-2.84l15.93-50.35h0.28l15.64,50.49
		C198.4,278.47,193.14,279.47,187.31,279.47 M303.79,176.92h-50.35v119.89l-44.09-119.89h-43.66l-37.55,100.12
		c-3.98-25.32-30.15-33.99-50.63-40.53C64,232.11,49.49,225.71,49.64,218.6c0.14-5.83,7.68-11.24,22.76-10.38
		c10.1,0.57,19.06,1.28,36.84,9.96l17.49-30.44c-16.21-8.25-38.68-13.51-57.03-13.51h0c-21.48,0-39.25,6.97-50.35,18.49
		c-7.68,7.96-11.8,18.2-12.09,29.44c-0.28,15.5,5.4,26.45,17.35,35.13c10.1,7.4,22.9,12.09,34.28,15.64
		c13.94,4.27,25.46,8.11,25.32,16.07c-0.14,2.99-1.14,5.69-3.27,7.82c-3.56,3.56-8.82,4.98-16.21,5.12
		c-14.22,0.28-24.89-1.99-41.67-11.95L7.11,321c16.78,9.53,36.69,15.22,57.03,15.22h2.56c17.64-0.28,32-5.4,43.38-14.51l1.85-1.56
		l-4.98,13.51h45.8l7.68-23.32c8.11,2.7,17.21,4.27,26.88,4.27c9.53,0,18.35-1.42,26.31-3.98l7.4,23.18h74.67v-48.36h16.36
		c39.4,0,62.72-20.05,62.72-53.62C374.61,194.13,352,176.92,303.79,176.92"/>
</g>
</svg>
